<?xml version="1.0" encoding="UTF-8"?>
<!DOCTYPE svg PUBLIC "-//W3C//DTD SVG 1.1//EN" "http://www.w3.org/Graphics/SVG/1.1/DTD/svg11.dtd">
<!-- Creator: CorelDRAW 2026 -->
<svg xmlns="http://www.w3.org/2000/svg" xml:space="preserve" width="67.7332mm" height="67.7332mm" version="1.1" style="shape-rendering:geometricPrecision; text-rendering:geometricPrecision; image-rendering:optimizeQuality; fill-rule:evenodd; clip-rule:evenodd"
viewBox="0 0 6773.32 6773.32"
 xmlns:xlink="http://www.w3.org/1999/xlink"
 xmlns:xodm="http://www.corel.com/coreldraw/odm/2003">
 <defs>
  <style type="text/css">
   <![CDATA[
    .str0 {stroke:black;stroke-width:26.45;stroke-miterlimit:22.9256}
    .fil1 {fill:none}
    .fil2 {fill:black}
    .fil3 {fill:black}
    .fil0 {fill:yellow}
   ]]>
  </style>
 </defs>
 <g id="Camada_x0020_1">
  <metadata id="CorelCorpID_0Corel-Layer"/>
  <rect class="fil0" x="-0.01" y="-0.01" width="6773.33" height="6773.33" rx="1190.59" ry="917.75"/>
  <path class="fil1" d="M2813.57 1043.26c-531.67,70.16 -801.02,308.49 -807.94,715.09l0 2444.89"/>
  <rect class="fil2" x="2212.49" y="3282.72" width="169.01" height="429.77"/>
  <path class="fil2" d="M1669.83 3282.77l0 0 0 429.77 0 0c-116.22,0 -211.28,-95.02 -211.28,-211.25l0 -7.26c0,-116.24 95.06,-211.26 211.28,-211.26z"/>
  <rect class="fil2" x="1286.48" y="4304.68" width="4200.35" height="725.06" rx="186.29" ry="180.05"/>
  <path class="fil2" d="M3878 5098.44l408.33 0 0 830.69c0,50.87 -41.5,92.37 -92.26,92.37l-223.81 0c-50.77,0 -92.26,-41.5 -92.26,-92.37l0 -830.69z"/>
  <path class="fil2" d="M3161.15 5098.44l408.34 0 0 830.69c0,50.87 -41.5,92.37 -92.26,92.37l-223.81 0c-50.77,0 -92.27,-41.5 -92.27,-92.37l0 -830.69z"/>
  <path class="fil2" d="M2453.27 5098.44l408.33 0 0 830.69c0,50.87 -41.5,92.37 -92.26,92.37l-223.81 0c-50.77,0 -92.26,-41.5 -92.26,-92.37l0 -830.69z"/>
  <g id="_2614603551456">
   <path class="fil3 str0" d="M5001.48 4236.1l-408.33 0 0 -1622.82 -306.85 0 0 1622.82 -408.27 0 0 -1622.82 -116.06 0 0 -429.77 116.06 0 0 -1385.13c141.32,24.46 268.62,59.72 408.27,114l0 1271.13 306.85 0 0 -1113.03c204.16,142.52 408.33,359.39 408.33,695l0 2470.62z"/>
   <path class="fil3 str0" d="M1673.44 2183.51l64.97 0 0 -415.88c0,-293.57 204.17,-783.21 1123.17,-971.1l0 249.11c-660.52,85.36 -714.83,516.86 -714.83,721.99l0 415.88 116.13 0 0 429.77 -116.13 0 0 1622.82c-136.13,0 -272.19,0 -408.34,0l0 -1622.82 -64.97 0c-118.2,0 -214.89,-96.69 -214.89,-214.83l0 -0.11c0,-118.13 96.69,-214.83 214.89,-214.83z"/>
   <path class="fil3 str0" d="M2334.75 2183.51l118.46 0 0 -890.65c0,-36.93 249.79,-152.76 408.37,-152.76l0 1043.41 113.59 0 0 429.77 -113.59 0 0 1622.82 -408.37 0 0 -1622.82 -118.46 0 0 -429.77z"/>
   <path class="fil3 str0" d="M3047.06 2183.51l116.07 0 0 -1424.17c136.98,-9.05 271.29,-11.09 408.37,0.36l0 1423.81 115.99 0 0 429.77 -115.99 0 0 1622.82 -408.37 0 0 -1622.82 -116.07 0 0 -429.77z"/>
  </g>
  <rect class="fil2" x="2927.86" y="3282.72" width="169.01" height="429.77"/>
  <rect class="fil2" x="3639.99" y="3282.72" width="169.01" height="429.77"/>
  <rect class="fil2" x="4355.36" y="3282.72" width="169.01" height="429.77"/>
 </g>
</svg>
