<?xml version="1.0" encoding="UTF-8"?>
<!DOCTYPE svg PUBLIC "-//W3C//DTD SVG 1.1//EN" "http://www.w3.org/Graphics/SVG/1.1/DTD/svg11.dtd">
<!-- Creator: CorelDRAW 2026 -->
<svg xmlns="http://www.w3.org/2000/svg" xml:space="preserve" width="67.7332mm" height="67.7332mm" version="1.1" style="shape-rendering:geometricPrecision; text-rendering:geometricPrecision; image-rendering:optimizeQuality; fill-rule:evenodd; clip-rule:evenodd"
viewBox="0 0 6773.32 6773.32"
 xmlns:xlink="http://www.w3.org/1999/xlink"
 xmlns:xodm="http://www.corel.com/coreldraw/odm/2003">
 <defs>
  <style type="text/css">
   <![CDATA[
    .fil1 {fill:none}
    .fil0 {fill:#3B82F6}
   ]]>
  </style>
 </defs>
 <g id="Camada_x0020_1">
  <metadata id="CorelCorpID_0Corel-Layer"/>
  <g id="_2920994578048">
   <rect class="fil0" x="2308.8" y="1170.35" width="471.53" height="3196.93"/>
   <rect class="fil0" x="3128.59" y="344.35" width="471.53" height="4022.92"/>
   <rect class="fil0" x="3954.04" y="436.16" width="471.53" height="3931.16"/>
   <path class="fil1" d="M2724.89 680.32c-613.96,81.01 -924.99,356.23 -932.98,825.76l0 2823.25"/>
   <rect class="fil0" x="3682.95" y="3266.35" width="1568.16" height="496.28"/>
   <rect class="fil0" x="2859.53" y="3266.35" width="186.21" height="496.28"/>
   <rect class="fil0" x="2030.79" y="3266.35" width="195.16" height="496.28"/>
   <path class="fil0" d="M1282.14 3266.41l122 0 0 496.29 -122 0c-67.09,0 -121.98,-54.93 -121.98,-121.98l0 -252.33c0,-67.05 54.89,-121.98 121.98,-121.98z"/>
   <rect class="fil0" x="4498.62" y="1996.97" width="203.66" height="496.28"/>
   <path class="fil0" d="M1483.34 4367.27c157.21,0 314.32,0 471.53,0l0 -2850.48c0,-236.87 62.71,-735.14 825.45,-833.72l0 -287.66c-1061.21,216.96 -1296.98,782.38 -1296.98,1121.38l0 2850.48z"/>
   <path class="fil0" d="M5251.4 4367.27l-471.53 0c0,-1209.38 0,-2434.28 0,-3643.67 159.94,118.05 471.53,403.16 471.53,790.71l0 2852.96z"/>
   <path class="fil0" d="M1408.31 1997.03l680.66 0 0 496.28 -680.66 0c-136.49,0 -248.15,-111.66 -248.15,-248.2l0 0c0,-136.42 111.66,-248.08 248.15,-248.08z"/>
   <rect class="fil0" x="2171.96" y="1996.97" width="739.54" height="496.28"/>
   <rect class="fil0" x="2994.58" y="1996.97" width="880.32" height="496.28"/>
   <rect class="fil0" x="562.39" y="4446.47" width="5648.53" height="837.27" rx="250.52" ry="207.91"/>
   <rect class="fil0" x="3954.04" y="5363.07" width="471.53" height="1065.9"/>
   <rect class="fil0" x="3126.26" y="5363.07" width="471.53" height="1065.9"/>
   <rect class="fil0" x="2308.82" y="5363.07" width="471.53" height="1065.9"/>
  </g>
 </g>
</svg>
