<?xml version="1.0" encoding="UTF-8"?>
<!DOCTYPE svg PUBLIC "-//W3C//DTD SVG 1.1//EN" "http://www.w3.org/Graphics/SVG/1.1/DTD/svg11.dtd">
<!-- Creator: CorelDRAW 2026 -->
<svg xmlns="http://www.w3.org/2000/svg" xml:space="preserve" width="67.7332mm" height="67.7332mm" version="1.1" style="shape-rendering:geometricPrecision; text-rendering:geometricPrecision; image-rendering:optimizeQuality; fill-rule:evenodd; clip-rule:evenodd"
viewBox="0 0 6773.32 6773.32"
 xmlns:xlink="http://www.w3.org/1999/xlink"
 xmlns:xodm="http://www.corel.com/coreldraw/odm/2003">
 <defs>
  <style type="text/css">
   <![CDATA[
    .str0 {stroke:#666666;stroke-width:26.45;stroke-miterlimit:22.9256}
    .fil1 {fill:#666666}
    .fil2 {fill:#B3B3B3}
    .fil0 {fill:#CCCCCC}
   ]]>
  </style>
 </defs>
 <g id="Camada_x0020_1">
  <metadata id="CorelCorpID_0Corel-Layer"/>
  <g id="_2781211428992">
   <g>
    <path class="fil0" d="M1454.22 1769.77l0 2770.7c-0.09,269.83 125.98,490.76 332.09,663.2l0 538.07 504.75 0 0 -258.13c646.38,237.71 1536.89,238.75 2184.84,3.75l0 254.38 504.75 0 0 -529.87c211.32,-173.65 340.11,-397.43 338.43,-671.4l0 -2776.56c-5.86,-1542.01 -3864.87,-1540.05 -3864.86,5.86z"/>
    <path id="_1" class="fil1" d="M1454.22 1769.77l0 2770.7c-0.09,269.83 125.98,490.76 332.09,663.2l0 538.07 504.75 0 0 -258.13c646.38,237.71 1536.89,238.75 2184.84,3.75l0 254.38 504.75 0 0 -529.87c211.32,-173.65 340.11,-397.43 338.43,-671.4l0 -2776.56c-5.86,-1542.01 -3864.87,-1540.05 -3864.86,5.86zm-52.71 2770.7l-0.21 0 0 -2770.7 0.21 0c-0.01,-583.69 514.21,-956.19 1173.96,-1118.92 254.04,-62.67 530.26,-94.24 806.65,-94.69 276.15,-0.45 552.51,30.22 807.16,91.99 662.41,160.69 1180.29,532.13 1182.51,1115.76l0.21 0 0 2776.56 -0.21 0c0.83,141.48 -31,270.47 -89.69,386.9 -58.35,115.74 -143.11,218.71 -248.53,308.92l0 505.45 0 52.92 -52.92 0 -504.75 0 -52.92 0 0 -52.92 0 -180.3c-314.29,103.27 -677.76,154.64 -1040.68,154.02 -362.62,-0.62 -725.23,-53.07 -1038.32,-157.36l0 183.64 0 52.92 -52.92 0 -504.75 0 -52.92 0 0 -52.92 0 -513.79c-102.6,-89.38 -185.35,-191.3 -242.7,-305.83 -57.62,-115.1 -89.22,-242.32 -89.18,-381.65z"/>
   </g>
   <polygon class="fil1 str0" points="2282.16,5415.99 2467.37,5486.17 2467.37,6164.46 2282.16,6164.46 "/>
   <rect class="fil1 str0" x="1964.38" y="2578.16" width="135.12" height="1331.12" rx="67.56" ry="75.71"/>
   <rect class="fil1 str0" x="2206" y="2578.16" width="135.12" height="1331.12" rx="67.56" ry="75.71"/>
   <rect class="fil1 str0" x="2438.49" y="2578.16" width="135.12" height="1331.12" rx="67.56" ry="75.71"/>
   <rect class="fil1 str0" x="4667.94" y="2578.16" width="135.12" height="1331.12" rx="67.56" ry="75.71"/>
   <rect class="fil1 str0" x="4426.32" y="2578.16" width="135.12" height="1331.12" rx="67.56" ry="75.71"/>
   <rect class="fil1 str0" x="4193.83" y="2578.16" width="135.12" height="1331.12" rx="67.56" ry="75.71"/>
   <polygon class="fil1 str0" points="4475.9,5415.99 4290.69,5478.77 4290.69,6164.46 4475.9,6164.46 "/>
   <rect class="fil2 str0" transform="matrix(0.72832 -0.728321 0.880385 0.880386 1715.59 1203.93)" width="265.01" height="561.57" rx="132.51" ry="132.51"/>
   <rect class="fil2 str0" transform="matrix(-0.72832 -0.728321 -0.880385 0.880386 5051.84 1203.93)" width="265.01" height="561.57" rx="132.51" ry="132.51"/>
   <rect class="fil2 str0" transform="matrix(0.352281 0.967884 1.16997 -0.425834 1520.65 4662.76)" width="265.01" height="561.57" rx="132.51" ry="132.51"/>
   <rect class="fil2 str0" transform="matrix(-0.352281 0.967884 -1.16997 -0.425834 5246.97 4662.76)" width="265.01" height="561.57" rx="132.51" ry="132.51"/>
   <rect class="fil2 str0" x="3208.24" y="4876.94" width="272.96" height="699.19" rx="136.49" ry="164.98"/>
  </g>
 </g>
</svg>
